<svg width="32" height="32" viewBox="0 0 32 32" fill="none" xmlns="http://www.w3.org/2000/svg">
<path d="M17.2667 19.9334L19.7334 22.4C20.2534 22.92 21.08 22.92 21.6134 22.4134C21.76 22.2667 21.9067 22.1334 22.0534 21.9867C23.4267 20.6 24.6667 19.1467 25.7734 17.6267C26.8667 16.1067 27.7467 14.5867 28.3867 13.08C29.0134 11.56 29.3334 10.1067 29.3334 8.72002C29.3334 7.81335 29.1734 6.94669 28.8534 6.14669C28.5334 5.33335 28.0267 4.58669 27.32 3.92002C26.4667 3.08002 25.5334 2.66669 24.5467 2.66669C24.1734 2.66669 23.8 2.74669 23.4667 2.90669C23.12 3.06669 22.8134 3.30669 22.5734 3.65335L19.48 8.01335C19.24 8.34669 19.0667 8.65335 18.9467 8.94669C18.8267 9.22669 18.76 9.50669 18.76 9.76002C18.76 10.08 18.8534 10.4 19.04 10.7067C19.2134 11.0134 19.4667 11.3334 19.7867 11.6534L20.8 12.7067C20.9467 12.8534 21.0134 13.0267 21.0134 13.24C21.0134 13.3467 21 13.44 20.9734 13.5467C20.9334 13.6534 20.8934 13.7334 20.8667 13.8134C20.6267 14.2534 20.2134 14.8267 19.6267 15.52C19.0267 16.2134 18.3867 16.92 17.6934 17.6267C17.56 17.76 17.4134 17.8934 17.28 18.0267C16.7467 18.5467 16.7334 19.4 17.2667 19.9334Z" fill="url(#paint0_linear_1_1713)"/>
<path d="M2.70662 24.44C2.70662 24.8133 2.77328 25.2 2.90662 25.5733C2.94662 25.68 2.98662 25.7866 3.03995 25.8933C3.26662 26.3733 3.55995 26.8266 3.94662 27.2533C4.59995 27.9733 5.31995 28.4933 6.13329 28.8266C6.14662 28.8266 6.15995 28.84 6.17328 28.84C6.95995 29.16 7.81328 29.3333 8.73328 29.3333C10.0933 29.3333 11.5466 29.0133 13.08 28.36C14.6133 27.7066 16.1466 26.8266 17.6666 25.72C18.1866 25.3333 18.7066 24.9466 19.2 24.5333L14.84 20.1733C14.4666 20.4533 14.1333 20.6666 13.8533 20.8133C13.7866 20.84 13.7066 20.88 13.6133 20.92C13.5066 20.96 13.4 20.9733 13.28 20.9733C13.0533 20.9733 12.88 20.8933 12.7333 20.7466L11.72 19.7466C11.3866 19.4133 11.0666 19.16 10.76 19C10.4533 18.8133 10.1466 18.72 9.81329 18.72C9.55995 18.72 9.29328 18.7733 8.99995 18.8933C8.70662 19.0133 8.39995 19.1866 8.06662 19.4133L3.65328 22.5466C3.30662 22.7866 3.06662 23.0666 2.91995 23.4C2.78662 23.7333 2.70662 24.0666 2.70662 24.44Z" fill="url(#paint1_linear_1_1713)"/>
<defs>
<linearGradient id="paint0_linear_1_1713" x1="19.8263" y1="7.02718" x2="26.4822" y2="7.02411" gradientUnits="userSpaceOnUse">
<stop stop-color="#1463FF"/>
<stop offset="1" stop-color="#42C5FE"/>
</linearGradient>
<linearGradient id="paint1_linear_1_1713" x1="6.61551" y1="21.0196" x2="15.4259" y2="21.0094" gradientUnits="userSpaceOnUse">
<stop stop-color="#1463FF"/>
<stop offset="1" stop-color="#42C5FE"/>
</linearGradient>
</defs>
</svg>
